<svg width="60" height="60" viewBox="0 0 60 60" fill="none" xmlns="http://www.w3.org/2000/svg">
<rect width="60" height="60" rx="12" fill="#D9D9D9"/>
<path d="M35.125 16.625C35.9029 16.6248 36.6522 16.9185 37.2226 17.4475C37.7929 17.9764 38.1423 18.7014 38.2007 19.4771L38.2084 19.7083C38.2084 20.0859 38.3471 20.4504 38.598 20.7326C38.8489 21.0148 39.1947 21.195 39.5697 21.2392L39.75 21.25H41.2917C42.4714 21.2499 43.6065 21.7007 44.4649 22.51C45.3232 23.3193 45.8398 24.426 45.909 25.6037L45.9167 25.875V39.75C45.9168 40.9297 45.466 42.0648 44.6567 42.9232C43.8474 43.7815 42.7407 44.2981 41.563 44.3673L41.2917 44.375H19.7084C18.5287 44.3751 17.3935 43.9243 16.5352 43.115C15.6769 42.3057 15.1603 41.199 15.0911 40.0213L15.0834 39.75V25.875C15.0833 24.6953 15.534 23.5602 16.3434 22.7018C17.1527 21.8435 18.2594 21.3269 19.437 21.2577L19.7084 21.25H21.25C21.6589 21.25 22.051 21.0876 22.3402 20.7985C22.6293 20.5093 22.7917 20.1172 22.7917 19.7083C22.7915 18.9304 23.0853 18.1812 23.6142 17.6108C24.1431 17.0404 24.8681 16.6911 25.6438 16.6327L25.875 16.625H35.125ZM30.5 27.4167C29.354 27.4166 28.2487 27.842 27.3984 28.6105C26.5482 29.379 26.0135 30.4358 25.8982 31.5761L25.8812 31.8104L25.875 32.0417L25.8812 32.2729C25.9265 33.1767 26.2358 34.0473 26.771 34.777C27.3062 35.5067 28.0437 36.0633 28.8921 36.378C29.7405 36.6927 30.6626 36.7516 31.5442 36.5473C32.4258 36.3431 33.2281 35.8848 33.8517 35.2291C34.4753 34.5734 34.8929 33.7492 35.0527 32.8585C35.2125 31.9678 35.1076 31.0498 34.7508 30.2182C34.394 29.3866 33.8011 28.6779 33.0456 28.1799C32.29 27.682 31.4049 27.4166 30.5 27.4167Z" fill="white"/>
</svg>
