<svg width="30" height="30" viewBox="0 0 30 30" fill="none" xmlns="http://www.w3.org/2000/svg">
<path fill-rule="evenodd" clip-rule="evenodd" d="M23.3333 3.33333V6.66667H26.6667V3.33333H23.3333ZM13.3333 26.6667H16.6667V30H13.3333V26.6667ZM26.6667 13.3333H30V16.6667H26.6667V13.3333ZM13.3333 20H16.6667V23.3333H13.3333V20ZM20 13.3333H23.3333V16.6667H20V13.3333ZM1.66667 0H15C15.442 0 15.8659 0.175595 16.1785 0.488155C16.4911 0.800716 16.6667 1.22464 16.6667 1.66667V15C16.6667 15.442 16.4911 15.8659 16.1785 16.1785C15.8659 16.4911 15.442 16.6667 15 16.6667H1.66667C1.22464 16.6667 0.800716 16.4911 0.488155 16.1785C0.175595 15.8659 0 15.442 0 15V1.66667C0 1.22464 0.175595 0.800716 0.488155 0.488155C0.800716 0.175595 1.22464 0 1.66667 0ZM3.33333 3.33333V13.3333H13.3333V3.33333H3.33333ZM6.66667 6.66667H10V10H6.66667V6.66667ZM21.6667 0H28.3333C28.7754 0 29.1993 0.175595 29.5118 0.488155C29.8244 0.800716 30 1.22464 30 1.66667V8.33333C30 8.77536 29.8244 9.19928 29.5118 9.51184C29.1993 9.8244 28.7754 10 28.3333 10H21.6667C21.2246 10 20.8007 9.8244 20.4882 9.51184C20.1756 9.19928 20 8.77536 20 8.33333V1.66667C20 1.22464 20.1756 0.800716 20.4882 0.488155C20.8007 0.175595 21.2246 0 21.6667 0ZM21.6667 20H28.3333C28.7754 20 29.1993 20.1756 29.5118 20.4882C29.8244 20.8007 30 21.2246 30 21.6667V28.3333C30 28.7754 29.8244 29.1993 29.5118 29.5118C29.1993 29.8244 28.7754 30 28.3333 30H21.6667C21.2246 30 20.8007 29.8244 20.4882 29.5118C20.1756 29.1993 20 28.7754 20 28.3333V21.6667C20 21.2246 20.1756 20.8007 20.4882 20.4882C20.8007 20.1756 21.2246 20 21.6667 20ZM23.3333 23.3333V26.6667H26.6667V23.3333H23.3333ZM1.66667 20H8.33333C8.77536 20 9.19928 20.1756 9.51184 20.4882C9.8244 20.8007 10 21.2246 10 21.6667V28.3333C10 28.7754 9.8244 29.1993 9.51184 29.5118C9.19928 29.8244 8.77536 30 8.33333 30H1.66667C1.22464 30 0.800716 29.8244 0.488155 29.5118C0.175595 29.1993 0 28.7754 0 28.3333V21.6667C0 21.2246 0.175595 20.8007 0.488155 20.4882C0.800716 20.1756 1.22464 20 1.66667 20ZM3.33333 23.3333V26.6667H6.66667V23.3333H3.33333Z" fill="#2BA34C"/>
</svg>
