<svg width="43" height="38" viewBox="0 0 43 38" fill="none" xmlns="http://www.w3.org/2000/svg">
<path d="M24.1521 2.42715L41.7799 32.9582C42.0487 33.4238 42.1902 33.9519 42.1902 34.4895C42.1902 35.027 42.0487 35.5551 41.7799 36.0207C41.5111 36.4863 41.1245 36.8729 40.659 37.1417C40.1934 37.4105 39.6653 37.552 39.1278 37.552H3.87225C3.33468 37.552 2.80658 37.4105 2.34103 37.1417C1.87548 36.8729 1.48889 36.4863 1.22011 36.0207C0.951326 35.5551 0.809826 35.027 0.80983 34.4895C0.809833 33.9519 0.95134 33.4238 1.22013 32.9582L18.8479 2.42715C20.0259 0.385488 22.972 0.385488 24.1521 2.42715ZM21.5 26.625C20.9585 26.625 20.4392 26.8401 20.0563 27.223C19.6734 27.6059 19.4583 28.1252 19.4583 28.6667C19.4583 29.2081 19.6734 29.7274 20.0563 30.1103C20.4392 30.4932 20.9585 30.7083 21.5 30.7083C22.0415 30.7083 22.5608 30.4932 22.9437 30.1103C23.3266 29.7274 23.5417 29.2081 23.5417 28.6667C23.5417 28.1252 23.3266 27.6059 22.9437 27.223C22.5608 26.8401 22.0415 26.625 21.5 26.625ZM21.5 12.3333C20.9999 12.3334 20.5173 12.517 20.1436 12.8493C19.7699 13.1816 19.5311 13.6395 19.4726 14.1361L19.4583 14.375V22.5417C19.4589 23.062 19.6582 23.5626 20.0154 23.941C20.3726 24.3193 20.8609 24.5471 21.3803 24.5775C21.8998 24.608 22.4114 24.439 22.8104 24.105C23.2095 23.771 23.4659 23.2973 23.5274 22.7805L23.5417 22.5417V14.375C23.5417 13.8335 23.3266 13.3142 22.9437 12.9313C22.5608 12.5484 22.0415 12.3333 21.5 12.3333Z" fill="#E89417"/>
</svg>
